<?xml version="1.0" encoding="UTF-8"?><svg id="Capa_2" xmlns="http://www.w3.org/2000/svg" viewBox="0 0 29 29"><defs><style>.cls-1{fill:#fff;}.cls-2{fill:#0b204c;}</style></defs><g id="Capa_1-2"><g><circle class="cls-2" cx="14.5" cy="14.5" r="14.5"/><path class="cls-1" d="m17.22,12.14c1.96,0,3.8-.02,5.63,0,1.4.02,2.48,1.05,2.64,2.45.15,1.33-.71,2.6-2.02,2.93-.39.1-.82.09-1.23.09-1.63,0-3.25,0-4.97,0-.02.33-.05.6-.05.87,0,1.53.01,3.05,0,4.58-.02,1.67-1.18,2.85-2.75,2.84-1.57-.01-2.71-1.2-2.73-2.87-.02-1.76,0-3.52,0-5.37-.31-.02-.58-.05-.85-.05-1.48,0-2.95,0-4.43,0-1.81-.02-3-1.11-2.99-2.74,0-1.64,1.2-2.74,3-2.74,1.73,0,3.45,0,5.28,0,0-1.69,0-3.28,0-4.88,0-.44-.03-.89.07-1.31.29-1.33,1.57-2.2,2.97-2.07,1.36.13,2.4,1.19,2.43,2.57.04,1.58.01,3.16.02,4.74,0,.28,0,.56,0,.96Z"/></g></g></svg>