<?xml version="1.0" encoding="UTF-8"?><svg id="Capa_2" xmlns="http://www.w3.org/2000/svg" viewBox="0 0 18.84 26.66"><defs><style>.cls-1{fill:#2ad1cc;}</style></defs><g id="Capa_1-2"><g><path class="cls-1" d="m16.7,24.14c.27-.52.14-1.22-.28-1.55l-8.83-6.92c-1.38-1.09-1.38-3.58,0-4.66l8.83-6.92c.43-.33.55-1.03.28-1.55s-.84-.68-1.26-.35L2.42,12.38c-.26.21-.42.57-.42.95s.16.74.42.95l13.01,10.2c.15.12.32.18.49.18.3,0,.6-.18.77-.52Z"/><path class="cls-1" d="m15.92,26.66c-.62,0-1.21-.21-1.72-.6L1.19,15.85c-.75-.59-1.19-1.53-1.19-2.52s.44-1.94,1.19-2.52L14.2.6c.67-.52,1.51-.71,2.31-.54.83.18,1.55.74,1.96,1.53.72,1.38.36,3.12-.83,4.05l-8.82,6.92c-.16.13-.27.43-.27.76s.11.63.27.76l8.83,6.92c1.18.93,1.54,2.67.82,4.05h0c-.51.99-1.49,1.6-2.55,1.6ZM4.45,13.33l.1.08s0-.05,0-.08,0-.05,0-.08l-.1.08ZM15.18,2.5h0s0,0,0,0Z"/></g></g></svg>