<?xml version="1.0" encoding="UTF-8"?><svg id="Capa_2" xmlns="http://www.w3.org/2000/svg" viewBox="0 0 16.17 17"><defs><style>.cls-1{fill:#1e2647;}</style></defs><g id="Capa_1-2"><g><path class="cls-1" d="m0,4.52c.14-.08.26-.15.38-.21,1.94-1.08,3.87-2.16,5.81-3.23.63-.35,1.26-.7,1.89-1.05.04-.02.07-.02.1,0,1.59.9,3.18,1.79,4.77,2.69,1.03.58,2.06,1.16,3.09,1.74.04.02.07.04.13.07H0Z"/><path class="cls-1" d="m4.32,13.53v.63s-.05,0-.08,0c-1.06,0-2.12,0-3.17,0-.07,0-.09-.01-.09-.08,0-.18,0-.36,0-.54.03,0,.06,0,.09-.01.33-.03.54-.27.54-.6,0-.67,0-1.34,0-2.01,0-1.05-.01-2.1,0-3.15,0-.42-.26-.69-.63-.68,0-.02,0-.03,0-.05,0-.17,0-.35,0-.52,0-.05.01-.06.06-.06,1.08,0,2.16,0,3.24,0,0,0,.02,0,.03,0v.62s-.04.01-.07.02c-.28.06-.47.29-.47.58,0,.64,0,1.28,0,1.92,0,1.09,0,2.17,0,3.26,0,.32.15.61.54.67Z"/><path class="cls-1" d="m11.93,7.05v-.6s.06,0,.08,0c1.03,0,2.05,0,3.08,0,.07,0,.09.01.09.08,0,.18,0,.36,0,.55-.04,0-.08.02-.12.03-.24.07-.42.29-.42.54,0,1.77,0,3.54,0,5.31,0,.27.19.5.46.55.07.01.09.04.09.11,0,.15,0,.3,0,.45,0,.07-.02.09-.09.09-.76,0-1.51,0-2.27,0-.27,0-.54,0-.8,0h-.09c0-.15,0-.28,0-.42,0-.06-.02-.14,0-.19.02-.04.11-.04.16-.06.22-.09.35-.26.37-.5,0-.03,0-.05,0-.08,0-1.74,0-3.47,0-5.21,0-.2-.06-.37-.22-.49-.09-.06-.2-.1-.32-.16Z"/><path class="cls-1" d="m9.76,7.08c-.23.03-.39.13-.48.34-.03.08-.05.16-.05.24,0,1.76,0,3.52,0,5.28,0,.28.19.51.47.57.06.01.07.03.07.09,0,.16,0,.32,0,.48,0,.05-.01.08-.07.08-1.04,0-2.08,0-3.11,0-.06,0-.07-.02-.07-.08,0-.17,0-.33,0-.5,0-.04.01-.06.06-.07.31-.06.49-.29.49-.61,0-1.08,0-2.16,0-3.24,0-.65,0-1.3,0-1.96,0-.33-.17-.54-.49-.62-.04,0-.05-.02-.05-.07,0-.17,0-.35,0-.52,0-.04.02-.06.06-.06.01,0,.03,0,.04,0,1.02,0,2.04,0,3.06,0q.1,0,.1.1c0,.18,0,.35,0,.53Z"/><path class="cls-1" d="m16.04,16.1v.9H.22s0-.04,0-.06c0-.26,0-.51,0-.77,0-.06.02-.08.07-.07.03,0,.06,0,.08,0,5.19,0,10.38,0,15.57,0h.1Z"/><path class="cls-1" d="m.72,5h14.74v.89H.72v-.89Z"/><path class="cls-1" d="m.54,15.58s0-.04,0-.06c0-.24,0-.48,0-.72,0-.06.02-.08.08-.07.03,0,.06,0,.08,0,4.93,0,9.86,0,14.79,0q.16,0,.16.16c0,.2,0,.41,0,.61,0,.03,0,.05,0,.09H.54Z"/></g></g></svg>