<?xml version="1.0" encoding="utf-8"?>
<!-- Generator: Adobe Illustrator 27.0.0, SVG Export Plug-In . SVG Version: 6.00 Build 0)  -->
<svg version="1.1" id="Capa_1" xmlns="http://www.w3.org/2000/svg" xmlns:xlink="http://www.w3.org/1999/xlink" x="0px" y="0px"
	 viewBox="0 0 600 600" style="enable-background:new 0 0 600 600;" xml:space="preserve">
<style type="text/css">
	.st0{fill:#1E2648;}
</style>
<g>
	<g>
		<polygon class="st0" points="300,-46.83 300.08,-46.75 300.16,-46.83 		"/>
	</g>
</g>
<g>
	<path class="st0" d="M300.1,304.78c41.42,49.85,113.76,55.46,161.25,0.38c26.29,30.88,59.55,44.15,100.46,37.77
		c0,65.22,0,191.94,0,257.07c-174.03,0-347.88,0-522.66,0c0-64.3,0-191.26,0-253.47c18.65-2.85,38.05-2.84,55.02-9.25
		c16.78-6.33,31.09-19.15,47.54-29.8c18.79,22.94,45.52,36.96,77.91,37.06C252.14,344.68,278.88,330.63,300.1,304.78z"/>
	<path class="st0" d="M280.06,0.17c0,63.3,0,139.43,0,202.48c-38.41,0-76.73,0-116.37,0c3.26-19.01,6.43-37.52,9.68-56.05
		c7.18-41.1,14.63-96.16,21.45-137.33c1.2-7.18,3.74-9.38,10.91-9.27C230.29,0.43,254.88,0.17,280.06,0.17z"/>
	<path class="st0" d="M404.17,0.87c10.87,62.28,21.79,138.75,32.85,202.02c-39.16,0-77.32,0-116.32,0c0-62.45,0-138.87,0-202.02
		C348.24,0.87,375.61,0.87,404.17,0.87z"/>
	<path class="st0" d="M591.7,203.53c-35.95,0-71.7,0.15-107.45-0.3c-2.53-0.03-6.77-3.9-7.26-6.53
		c-8.27-45.28-16.07-90.64-23.94-135.98c-2.62-15.09-5.13-44.16-7.94-60.56c26.81,0,52.49-0.15,78.17,0.26
		c2.16,0.03,5.41,3.3,6.26,5.71c21.09,60.23,41.92,134.56,62.78,194.85C592.42,201.27,592.17,201.68,591.7,203.53z"/>
	<path class="st0" d="M155.5,0.14c-4.95,28.7-9.68,70.07-14.45,97.46c-5.62,32.32-11.32,64.65-16.92,96.98
		c-0.8,4.69-1.02,9.09-7.86,9.05c-35.73-0.21-71.48-0.1-108.38-0.1c1.05-4.33,1.57-7.72,2.71-10.92
		C30.47,135.74,50.31,64.86,70.52,8.12c1.15-3.2,5.17-7.56,7.94-7.63C103.43-0.09,128.44,0.14,155.5,0.14z"/>
	<path class="st0" d="M-0.26,244.37c39.93,0,79.13,0,118.29,0c3.69,29.44-24.06,58.38-56.81,59.73
		C27.53,305.47-1.61,277.72-0.26,244.37z"/>
	<path class="st0" d="M600.67,244.84c2.35,29.39-23.78,57.13-55.51,59.25c-33.62,2.25-62.1-23.89-63.61-59.25
		C521.28,244.84,560.98,244.84,600.67,244.84z"/>
	<path class="st0" d="M320.69,244.45c39.64,0,79.24,0,118.81,0c2.53,30.37-23.61,57.99-56.05,59.68
		C349.76,305.86,321.73,279.46,320.69,244.45z"/>
	<path class="st0" d="M280.26,244.47c-3.94,37.88-30.98,62.19-65.07,59.59c-31.17-2.38-55.82-29.14-54.31-59.59
		C200.43,244.47,240.03,244.47,280.26,244.47z"/>
</g>
</svg>
