<?xml version="1.0" encoding="UTF-8"?><svg id="Capa_2" xmlns="http://www.w3.org/2000/svg" viewBox="0 0 25 25"><defs><style>.cls-1{fill:#0b204c;}</style></defs><g id="Capa_1-2"><g><path class="cls-1" d="m25,11.62c-.1.17-.17.36-.3.49-.28.29-.63.36-1.01.22-.39-.14-.6-.44-.64-.85-.01-.12,0-.24,0-.37,0-1.7,0-3.4,0-5.1,0-1.3-.82-2.12-2.12-2.12-.36,0-.71,0-1.11,0,0,.34.01.67,0,1-.03.76-.85,1.2-1.49.8-.3-.19-.45-.47-.46-.82,0-.32,0-.63,0-.97h-4.44c0,.25,0,.5,0,.75,0,.73-.37,1.18-.97,1.18-.61,0-.98-.45-.98-1.2,0-.24,0-.49,0-.74h-4.39c0,.31,0,.63,0,.96,0,.44-.27.8-.66.93-.63.21-1.26-.23-1.28-.91-.01-.32,0-.65,0-1.02-.58.03-1.14,0-1.67.1-.87.16-1.45.93-1.5,1.84,0,.06,0,.13,0,.2,0,4.98,0,9.96,0,14.94,0,.85.33,1.51,1.11,1.88.3.14.66.2.99.21,2.4.02,4.8.01,7.2,0,.32,0,.6.07.82.3.47.48.33,1.27-.28,1.56-.07.03-.15.06-.22.1H3.47s-.06-.04-.08-.04C1.55,24.74-.01,23.1,0,20.94c.02-4.98,0-9.96.01-14.94,0-.31.02-.62.08-.92.37-1.82,1.92-3.1,3.78-3.13.41,0,.82,0,1.26,0,0-.35-.01-.67,0-.99.03-.67.65-1.11,1.28-.91.39.13.65.49.66.93,0,.32,0,.64,0,.96h4.39c0-.3,0-.6,0-.89C11.49.43,11.89,0,12.46,0c.57,0,.97.44.97,1.06,0,.29,0,.58,0,.88h4.44c0-.3,0-.58,0-.86C17.88.44,18.29,0,18.86,0c.57,0,.96.44.97,1.06,0,.29,0,.58,0,.89.48,0,.94-.02,1.39,0,1.54.08,2.68.82,3.38,2.2.2.39.27.84.41,1.26v6.2Z"/><path class="cls-1" d="m18.61,25c-.56-.14-1.15-.23-1.69-.43-2.52-.93-4.12-3.74-3.65-6.38.42-2.34,1.75-3.96,4-4.69,2.3-.75,4.37-.19,6.08,1.53.93.93,1.44,2.09,1.6,3.4,0,.06.03.12.04.19v.98c-.02.08-.04.16-.05.24-.36,2.33-1.64,3.95-3.84,4.81-.49.19-1.02.25-1.53.37h-.98Zm4.44-5.91c0-2.18-1.78-3.96-3.96-3.96-2.17,0-3.94,1.77-3.95,3.94,0,2.18,1.77,3.96,3.95,3.97,2.18,0,3.96-1.77,3.96-3.95Z"/><path class="cls-1" d="m6.11,9.28c.54,0,.98.44.97.98,0,.54-.45.98-.99.97-.53,0-.96-.44-.96-.97,0-.54.44-.98.98-.98Z"/><path class="cls-1" d="m11.33,10.24c0,.54-.43.98-.97.99-.54,0-.98-.44-.98-.98,0-.53.43-.96.96-.97.54,0,.99.43.99.96Z"/><path class="cls-1" d="m14.6,9.28c.54,0,.98.44.98.98,0,.54-.44.98-.98.97-.53,0-.96-.44-.97-.96,0-.54.43-.98.97-.99Z"/><path class="cls-1" d="m18.85,9.28c.54,0,.98.44.98.98,0,.54-.44.98-.98.97-.53,0-.96-.44-.97-.96,0-.54.43-.98.97-.99Z"/><path class="cls-1" d="m7.09,14.49c0,.54-.43.98-.97.99-.54,0-.98-.44-.98-.98,0-.53.43-.96.96-.97.54,0,.99.43.99.96Z"/><path class="cls-1" d="m10.36,15.48c-.54,0-.98-.45-.97-.98,0-.54.45-.97.99-.97.53,0,.96.44.96.97,0,.54-.44.98-.98.98Z"/><path class="cls-1" d="m6.1,19.72c-.54,0-.97-.46-.96-.99,0-.54.46-.97,1-.96.53.01.95.45.95.98,0,.54-.45.98-.99.97Z"/><path class="cls-1" d="m10.35,19.72c-.54,0-.97-.45-.97-.99,0-.54.46-.97,1-.96.53.01.95.45.95.98,0,.54-.45.98-.98.97Z"/><path class="cls-1" d="m20.07,18.12c.18,0,.33,0,.47,0,.54.03.95.46.94.98,0,.52-.41.94-.94.96-.5.02-.99.02-1.49,0-.52-.02-.92-.42-.93-.94-.01-.69-.02-1.38,0-2.07.01-.53.45-.93.96-.94.53,0,.96.41.98.95.01.34,0,.68,0,1.05Z"/></g></g></svg>