<?xml version="1.0" encoding="utf-8"?>
<!-- Generator: Adobe Illustrator 27.0.0, SVG Export Plug-In . SVG Version: 6.00 Build 0)  -->
<svg version="1.1" id="Capa_1" xmlns="http://www.w3.org/2000/svg" xmlns:xlink="http://www.w3.org/1999/xlink" x="0px" y="0px"
	 viewBox="0 0 600 600" style="enable-background:new 0 0 600 600;" xml:space="preserve">
<style type="text/css">
	.st0{fill:#1E2648;}
</style>
<g>
	<g>
		<polygon class="st0" points="300,-46.83 300.08,-46.75 300.16,-46.83 		"/>
	</g>
</g>
<path class="st0" d="M562.77,276.1c0,81.66-0.14,163.33,0.2,244.99c0.04,9.5-2.48,16.58-9.56,22.8c-7.4,6.5-14.07,13.83-21.11,20.75
	c-1.23,1.21-2.72,3.01-4.52,1.7c-0.91-0.66-1.06-2.65-1.17-4.07c-0.19-2.38-0.1-4.78-0.1-7.17c-0.01-61-0.01-121.99-0.01-182.99
	c0-82.55,0-165.09,0-247.64c0-20.61,0.09-41.23-0.03-61.84c-0.09-16.75-7.19-24.38-24.04-24.41c-98.42-0.18-216.83-0.08-315.25-0.12
	c-5.02,0-9.35,1.28-12.97,4.97c-8.38,8.54-16.91,16.93-25.33,25.43c-1.42,1.44-3.49,2.83-2.77,5.24c0.84,2.81,3.55,2.98,5.9,3.14
	c3.58,0.24,7.17,0.23,10.76,0.24c93.93,0.01,207.86,0.01,301.79,0.02c4.77,0,9.67-0.41,14.05,2.02
	c8.21,4.57,10.81,11.65,10.78,20.95c-0.23,74.78-0.11,149.57-0.11,224.35c0,81.96-0.01,163.93-0.03,245.89
	c0,3.59,0.12,7.2-0.22,10.76c-1.22,12.71-7.65,18.71-20.54,18.77c-30.79,0.14-81.57,0.09-112.36,0.09c-92.13,0-206.27,0-298.4-0.02
	c-20.2-0.01-25.38-5.2-25.38-25.57c-0.03-156.75,0.04-313.5-0.21-470.25c-0.02-11.63,3.46-20.51,11.83-28.62
	c23.19-22.49,61.24-44.83,90.61-68.45C139.82,2.84,144.48,0,151.24,0c122.05,0.09,264.1,0.02,386.15,0.1
	c17.17,0.01,24.66,7.6,25.23,25.62c0.47,14.94,0.18,29.91,0.18,44.87c0.01,68.5,0,137.01,0,205.51
	C562.79,276.1,562.78,276.1,562.77,276.1z"/>
</svg>
