<?xml version="1.0" encoding="utf-8"?>
<!-- Generator: Adobe Illustrator 27.0.0, SVG Export Plug-In . SVG Version: 6.00 Build 0)  -->
<svg version="1.1" id="Capa_1" xmlns="http://www.w3.org/2000/svg" xmlns:xlink="http://www.w3.org/1999/xlink" x="0px" y="0px"
	 viewBox="0 0 600 600" style="enable-background:new 0 0 600 600;" xml:space="preserve">
<style type="text/css">
	.st0{fill:#1E2648;}
	.st1{fill:#FFCF54;}
	.st2{fill:#FFFFFF;stroke:#FFFFFF;stroke-miterlimit:10;}
</style>
<g>
	<g>
		<polygon class="st0" points="300,-46.83 300.08,-46.75 300.16,-46.83 		"/>
	</g>
</g>
<g>
	<circle class="st1" cx="300.5" cy="300" r="300"/>
	<g>
		<path class="st2" d="M301.38,180.95c51.65,0,103.3,0.22,154.95-0.15c13.5-0.1,27.69,9.3,27.66,27.74
			c-0.07,45.37-0.02,90.75-0.02,136.12c0,20.58,0.03,41.16-0.01,61.73c-0.02,13.03-8.22,23.48-20.45,26.24
			c-2.12,0.48-4.28,0.57-6.44,0.57c-103.82,0-207.63,0.02-311.45-0.01c-15.67,0-26.85-11.22-26.86-26.83
			c-0.03-66.06-0.02-132.11-0.01-198.17c0-18.15,14.1-27.46,27.37-27.38C197.87,181.14,249.63,180.95,301.38,180.95z M301.53,196.65
			c-51.23,0-102.46,0-153.69,0c-1.03,0-2.06-0.02-3.09,0.03c-6,0.27-9.96,4.26-10.07,10.24c-0.06,3.29-0.02,6.58,0,9.88
			c0.04,5.98,2.64,10.4,7.97,13.23c6.08,3.23,12.11,6.53,18.16,9.81c45.77,24.77,91.55,49.52,137.3,74.33
			c2.2,1.19,4.08,1.36,6.34,0.13c14.83-8.1,29.72-16.09,44.58-24.14c37.02-20.05,74.04-40.11,111.07-60.14
			c1.93-1.04,3.81-2.21,4.96-4.06c4.75-7.68,4-16.01,1.61-24.01c-1.29-4.32-5.77-5.3-10.22-5.3
			C404.81,196.67,353.17,196.66,301.53,196.65z M452.91,417.35c-1.87-1.43-3.07-2.39-4.3-3.3c-12.29-9.14-24.58-18.27-36.86-27.41
			c-28.52-21.24-57.04-42.49-85.54-63.76c-1.39-1.04-2.51-1.28-4.11-0.34c-3.71,2.18-7.54,4.18-11.35,6.18
			c-6.06,3.17-12.2,3.29-18.33,0.2c-2.2-1.11-4.58-2.03-6.47-3.55c-5.21-4.19-9.17-2.82-14.27,1.02
			c-39.4,29.69-79.07,59.03-118.64,88.48c-0.92,0.68-2,1.23-2.68,2.48C251.13,417.35,351.6,417.35,452.91,417.35z M134.77,408.73
			c1.76-1.26,3.08-2.18,4.37-3.13c39.84-29.61,79.67-59.22,119.5-88.83c4.68-3.48,4.69-3.48-0.4-6.24
			c-36.85-19.95-73.7-39.9-110.55-59.85c-4.21-2.28-8.43-4.53-12.93-6.95C134.77,298.83,134.77,353.5,134.77,408.73z M467.96,243.71
			c-42.96,23.24-85.53,46.27-128.53,69.53c42.98,31.97,85.55,63.63,128.53,95.6C467.96,353.53,467.96,298.87,467.96,243.71z"/>
	</g>
</g>
</svg>
