<?xml version="1.0" encoding="UTF-8"?><svg id="Capa_2" xmlns="http://www.w3.org/2000/svg" viewBox="0 0 28.19 33.57"><defs><style>.cls-1{fill:#c80000;}.cls-2{opacity:.8;}</style></defs><g id="Capa_1-2"><g class="cls-2"><g><path class="cls-1" d="m1.21,9.56h25.78c-.14,1.03-.28,2.05-.42,3.06-.31,2.23-.63,4.45-.94,6.68-.45,3.2-.9,6.4-1.35,9.6-.19,1.35-.38,2.7-.56,4.05-.07.48-.21.62-.7.62-5.94,0-11.89,0-17.83,0-.48,0-.63-.15-.69-.62-.32-2.35-.66-4.69-.98-7.03-.33-2.34-.66-4.69-.99-7.03-.33-2.34-.66-4.69-.99-7.03-.11-.75-.21-1.5-.31-2.29Zm13.96,12.01c0-2.3,0-4.6,0-6.9,0-.16,0-.32-.03-.48-.1-.55-.63-.93-1.19-.84-.58.09-.92.53-.92,1.2,0,4.66,0,9.32,0,13.97,0,.15,0,.3.04.44.11.41.38.68.79.77.41.09.77-.03,1.05-.35.21-.25.26-.55.26-.86,0-2.32,0-4.64,0-6.96Zm-7.64-8.2c-.61,0-1.08.51-1.04,1.14.04.66.11,1.33.16,1.99.19,2.16.38,4.32.57,6.48.17,1.91.33,3.83.5,5.74.06.65.57,1.09,1.16,1.03.63-.07,1.02-.6.96-1.27-.2-2.17-.38-4.34-.57-6.51-.22-2.54-.44-5.07-.67-7.61-.05-.58-.51-.99-1.08-.99Zm14.17,1.47c.06-.91-.32-1.42-.94-1.47-.6-.05-1.1.38-1.16,1-.16,1.79-.32,3.59-.48,5.38-.25,2.91-.5,5.81-.76,8.72-.06.68.32,1.21.96,1.28.6.07,1.1-.38,1.17-1.06.07-.75.13-1.51.2-2.26.17-1.92.33-3.85.5-5.77.18-2,.35-4.01.51-5.82Z"/><path class="cls-1" d="m28.19,8.03H0c0-.36,0-.72,0-1.07,0-.41,0-.82,0-1.22.02-1.15.92-2.07,2.07-2.09,1.76-.02,3.52,0,5.29,0,.51,0,.45.04.46-.44.03-1.64,1.07-2.88,2.66-3.16.17-.03.34-.03.51-.03C13.05,0,15.13,0,17.21,0c1.77,0,3.14,1.36,3.17,3.13,0,.58-.07.51.51.51,1.69,0,3.38,0,5.08,0,1.33,0,2.22.9,2.23,2.23,0,.71,0,1.43,0,2.16ZM9.89,3.61h8.4c0-.1.02-.18.02-.26.02-.88-.38-1.28-1.26-1.28-2,0-4,0-6,0-.26,0-.56.08-.78.22-.46.31-.45.8-.4,1.31Z"/></g></g></g></svg>