<?xml version="1.0" encoding="UTF-8"?><svg id="Capa_2" xmlns="http://www.w3.org/2000/svg" viewBox="0 0 31.88 31.88"><defs><style>.cls-1{fill:#fff;}.cls-2{fill:#252a48;}</style></defs><g id="Capa_1-2"><g><circle class="cls-2" cx="15.94" cy="15.94" r="15.94"/><path class="cls-1" d="m19.89,16.22c1.53,1.53,2.96,2.94,4.37,4.38,1.07,1.1,1.11,2.75.14,3.96-.92,1.15-2.57,1.47-3.84.71-.38-.23-.71-.57-1.03-.89-1.27-1.26-2.53-2.53-3.87-3.86-.27.24-.5.43-.71.64-1.19,1.18-2.37,2.38-3.57,3.56-1.31,1.28-3.14,1.29-4.35.07-1.21-1.23-1.18-3.04.11-4.35,1.35-1.38,2.73-2.74,4.18-4.18-.23-.26-.42-.49-.63-.7-1.14-1.15-2.3-2.29-3.44-3.44-1.4-1.42-1.47-3.2-.19-4.46,1.28-1.27,3.06-1.19,4.46.2,1.35,1.34,2.69,2.68,4.1,4.1,1.31-1.31,2.55-2.56,3.8-3.79.34-.34.67-.71,1.07-.97,1.26-.81,2.93-.49,3.92.7.96,1.15.94,2.79-.11,3.89-1.2,1.26-2.44,2.47-3.67,3.69-.22.22-.43.43-.74.74Z"/></g></g></svg>