<?xml version="1.0" encoding="UTF-8"?><svg id="Capa_2" xmlns="http://www.w3.org/2000/svg" viewBox="0 0 32.7 32.7"><defs><style>.cls-1{fill:#fff;}.cls-2{fill:#0b204c;}</style></defs><g id="Capa_1-2"><g><circle class="cls-2" cx="16.35" cy="16.35" r="16.35"/><g><path class="cls-1" d="m8.56,10.72s.03-.09.05-.14c.11-.32.4-.53.75-.53.6,0,1.19,0,1.79,0,1.88,0,3.76,0,5.64,0,.37,0,.69.25.77.6.09.37-.08.73-.41.91-.14.07-.28.09-.43.09-1.9,0-3.8,0-5.71,0-.21,0-.39.05-.55.18-.18.15-.28.35-.29.59,0,.06,0,.11,0,.17,0,3.3,0,6.59,0,9.89,0,.48.37.85.86.85,3.34,0,6.67,0,10.01,0,.43,0,.76-.28.82-.7,0-.05,0-.1,0-.15,0-1.72,0-3.44,0-5.16,0-.43.29-.76.7-.81.45-.05.85.28.88.73,0,.04,0,.08,0,.12,0,2.23,0,4.47,0,6.7,0,.45-.22.73-.65.84,0,0-.01,0-.02.01h-13.52s-.02-.01-.03-.02c-.34-.08-.54-.29-.62-.62,0-.01-.01-.02-.02-.03,0-4.51,0-9.02,0-13.52Z"/><path class="cls-1" d="m25.69,9.58s-.02.08-.03.12c-.04.2-.13.37-.27.53-1.85,2.16-3.7,4.31-5.56,6.47-.63.73-1.26,1.47-1.9,2.2-.04.05-.1.09-.16.11-.84.28-1.69.54-2.53.83-.18.06-.34-.05-.3-.26.14-.85.27-1.7.4-2.55.01-.07.05-.15.1-.21,1.25-1.46,2.51-2.92,3.77-4.39,1.24-1.44,2.47-2.88,3.71-4.31.19-.22.43-.36.72-.4.02,0,.04-.01.06-.02.08,0,.16,0,.25,0,.02,0,.04.01.06.02.23.03.42.13.59.28.23.19.45.39.68.59.2.18.33.4.39.66,0,.04.02.07.03.11v.25Z"/></g></g></g></svg>