<?xml version="1.0" encoding="utf-8"?>
<!-- Generator: Adobe Illustrator 27.0.0, SVG Export Plug-In . SVG Version: 6.00 Build 0)  -->
<svg version="1.1" id="Capa_1" xmlns="http://www.w3.org/2000/svg" xmlns:xlink="http://www.w3.org/1999/xlink" x="0px" y="0px"
	 viewBox="0 0 600 600" style="enable-background:new 0 0 600 600;" xml:space="preserve">
<style type="text/css">
	.st0{fill:#1E2648;}
</style>
<g>
	<g>
		<polygon class="st0" points="300,-46.83 300.08,-46.75 300.16,-46.83 		"/>
	</g>
</g>
<g>
	<path class="st0" d="M300.16,0c-165.69,0-300,134.31-300,300s134.31,300,300,300s300-134.31,300-300S465.84,0,300.16,0z
		 M346.87,525.44h-91.19V424.37h91.19V525.44z M381.67,316.82c-26.04,24.52-34.8,44.34-34.8,69.62v6.42h-91.19V381.7
		c0-40.81,16.23-70.77,61.42-111.01c25.37-22.71,32.94-41.04,32.94-62.58c0-23.35-13.37-42.03-42.86-42.03
		c-34.21,0-46.09,23.59-49.26,53.21h-85.82c2.9-51.16,35.39-121.09,136.76-120.56c100.01,0.54,129.37,65.16,129.37,112.53
		C438.23,249.49,425.74,276.01,381.67,316.82z"/>
</g>
</svg>
