<?xml version="1.0" encoding="UTF-8"?><svg id="Capa_2" xmlns="http://www.w3.org/2000/svg" viewBox="0 0 18.58 16.97"><defs><style>.cls-1{fill:#1e2647;}</style></defs><g id="Capa_1-2"><g><path class="cls-1" d="m3.48,8.49c.43,0,.81-.02,1.18,0,.42.02.55.28.33.61-.69,1.07-1.41,2.12-2.13,3.17-.2.28-.45.27-.64-.01-.72-1.05-1.44-2.1-2.13-3.17-.22-.34-.06-.58.36-.6.36-.02.72,0,1.1,0,.11-.68.17-1.34.32-1.97C2.83,2.48,6.71-.35,10.73.03c4.45.43,7.68,3.82,7.84,8.26.15,4.09-2.87,7.81-6.97,8.54-2,.36-3.9.02-5.67-.97-.62-.35-.8-.82-.51-1.33.29-.51.79-.6,1.41-.26,3.43,1.88,7.61.56,9.27-2.92,1.64-3.44.07-7.5-3.47-8.99C8.52.62,3.81,3.52,3.48,7.96c-.01.16,0,.31,0,.53Z"/><path class="cls-1" d="m10.7,9.05c1.29,0,2.54,0,3.78,0,.47,0,1.09-.11,1.09.61,0,.7-.59.63-1.08.63-1.37,0-2.74,0-4.12,0-.77,0-.95-.19-.95-.97,0-1.43,0-2.87,0-4.3,0-.47.08-.9.65-.89.54.01.6.44.6.87,0,1.11,0,2.22,0,3.33,0,.22.02.43.03.71Z"/></g></g></svg>