<?xml version="1.0" encoding="utf-8"?>
<!-- Generator: Adobe Illustrator 27.0.0, SVG Export Plug-In . SVG Version: 6.00 Build 0)  -->
<svg version="1.1" id="Capa_1" xmlns="http://www.w3.org/2000/svg" xmlns:xlink="http://www.w3.org/1999/xlink" x="0px" y="0px"
	 viewBox="0 0 600 600" style="enable-background:new 0 0 600 600;" xml:space="preserve">
<style type="text/css">
	.st0{fill:#1E2648;}
</style>
<g>
	<g>
		<polygon class="st0" points="300,-46.83 300.08,-46.75 300.16,-46.83 		"/>
		<path class="st0" d="M276.6,9.72L9.84,243.46c-6.23,6.23-9.72,14.67-9.72,23.47V566.8c0,18.33,14.86,33.2,33.2,33.2h100.32
			c18.34,0,33.2-14.86,33.2-33.2V400.99c0-18.33,14.86-33.2,33.2-33.2h192.74c18.34,0,33.2,14.86,33.2,33.2V566.8
			c0,18.33,14.86,33.2,33.2,33.2h107.66c18.34,0,33.2-14.86,33.2-33.2V266.93c0-8.8-3.5-17.25-9.72-23.47L323.56,9.72
			C310.59-3.25,289.57-3.25,276.6,9.72z"/>
	</g>
</g>
</svg>
