<?xml version="1.0" encoding="UTF-8"?><svg id="Capa_2" xmlns="http://www.w3.org/2000/svg" viewBox="0 0 22.71 26.34"><defs><style>.cls-1{fill:#0b204c;}</style></defs><g id="Capa_1-2"><g><polygon class="cls-1" points="11.35 0 11.36 0 11.36 0 11.35 0"/><path class="cls-1" d="m10.47.89L.37,10.99c-.24.24-.37.56-.37.89v13.21c0,.69.56,1.26,1.26,1.26h3.8c.69,0,1.26-.56,1.26-1.26v-7.72c0-.69.56-1.26,1.26-1.26h7.3c.69,0,1.26.56,1.26,1.26v7.72c0,.69.56,1.26,1.26,1.26h4.08c.69,0,1.26-.56,1.26-1.26v-13.21c0-.33-.13-.65-.37-.89L12.24.89c-.49-.49-1.29-.49-1.78,0Z"/></g></g></svg>