<?xml version="1.0" encoding="utf-8"?>
<!-- Generator: Adobe Illustrator 27.0.0, SVG Export Plug-In . SVG Version: 6.00 Build 0)  -->
<svg version="1.1" id="Capa_1" xmlns="http://www.w3.org/2000/svg" xmlns:xlink="http://www.w3.org/1999/xlink" x="0px" y="0px"
	 viewBox="0 0 1000 1000" style="enable-background:new 0 0 1000 1000;" xml:space="preserve">
<style type="text/css">
	.st0{fill:#262A49;}
	.st1{fill:#FFFFFF;}
</style>
<g>
	<circle class="st0" cx="500.18" cy="500.27" r="498.62"/>
	<path class="st1" d="M623.83,509.07c47.7,47.7,92.74,91.88,136.76,137.04c33.62,34.49,34.84,86,4.49,123.84
		c-28.89,36.01-80.44,46.13-120.22,22.2c-11.98-7.21-22.16-17.75-32.24-27.71c-39.8-39.33-79.24-79.04-121.02-120.83
		c-8.38,7.51-15.65,13.46-22.29,20.06c-37.24,37.02-73.98,74.56-111.57,111.21c-41.01,39.99-98.07,40.46-135.92,2.05
		c-37.79-38.35-36.78-94.98,3.39-135.95c42.33-43.18,85.42-85.61,130.59-130.78c-7.15-8.01-13.05-15.28-19.62-21.89
		c-35.76-35.98-71.92-71.56-107.48-107.74c-43.72-44.48-45.9-99.98-6.06-139.51c39.92-39.61,95.79-37.22,139.46,6.21
		c42.09,41.87,83.99,83.94,128.31,128.26c41-41,79.72-79.92,118.71-118.58c10.71-10.62,21.03-22.28,33.55-30.32
		c39.39-25.28,91.68-15.28,122.5,21.92c29.9,36.09,29.37,87.37-3.32,121.67c-37.45,39.29-76.44,77.11-114.76,115.56
		C640.32,492.6,633.51,499.38,623.83,509.07z"/>
</g>
</svg>
