<?xml version="1.0" encoding="UTF-8"?><svg id="Capa_2" xmlns="http://www.w3.org/2000/svg" viewBox="0 0 13.98 16"><defs><style>.cls-1{fill:#1e2647;}</style></defs><g id="Capa_1-2"><path class="cls-1" d="m6.51,0c.34,0,.68,0,1.02,0,.06.01.11.03.17.04.46.09.94.15,1.39.29,3.28,1.02,5.3,4.25,4.82,7.67-.48,3.41-3.42,5.98-6.87,5.99-.12,0-.26.04-.37.1-.7.42-1.39.85-2.08,1.28-.33.2-.66.41-1.03.63,0-.12,0-.2,0-.28.02-.79.04-1.59.07-2.38,0-.16-.05-.25-.19-.33-1.46-.87-2.49-2.11-3.04-3.72-.61-1.78-.54-3.55.27-5.26C1.56,2.16,3.02.9,5.02.3c.49-.15,1-.2,1.5-.3Zm-.4,5.31v5.75h1.76v-5.75h-1.76Zm.86-.71c.55,0,.99-.39.98-.9,0-.52-.4-.9-.95-.91-.57-.01-.97.37-.97.92,0,.5.4.89.94.89Z"/></g></svg>