<?xml version="1.0" encoding="utf-8"?>
<!-- Generator: Adobe Illustrator 27.0.0, SVG Export Plug-In . SVG Version: 6.00 Build 0)  -->
<svg version="1.1" id="Capa_1" xmlns="http://www.w3.org/2000/svg" xmlns:xlink="http://www.w3.org/1999/xlink" x="0px" y="0px"
	 viewBox="0 0 600 600" style="enable-background:new 0 0 600 600;" xml:space="preserve">
<style type="text/css">
	.st0{fill:#1E2648;}
</style>
<g>
	<g>
		<polygon class="st0" points="300,-46.83 300.08,-46.75 300.16,-46.83 		"/>
	</g>
</g>
<path class="st0" d="M307.62,0c12.79,0,25.59,0,38.38,0c2.1,0.5,4.19,1.06,6.3,1.49c17.39,3.52,35.25,5.51,52.1,10.76
	C527.47,50.6,603.15,171.47,585.22,299.94c-17.85,127.92-128.28,224.1-257.55,224.57c-4.68,0.02-9.92,1.48-13.92,3.89
	c-26.15,15.76-52.02,32-78.01,48.03c-12.42,7.66-24.91,15.22-38.58,23.57c0-4.53-0.07-7.49,0.01-10.45
	c0.8-29.73,1.47-59.47,2.59-89.19c0.23-6.09-1.76-9.35-6.98-12.48c-54.71-32.76-93.36-78.98-114.16-139.38
	c-23.03-66.89-20.08-133.07,10.07-197.06c33.26-70.62,88-117.55,162.81-140.08C269.69,5.89,288.88,3.7,307.62,0z M292.71,199.15
	c0,72.43,0,143.99,0,215.57c22.5,0,44.3,0,66.07,0c0-72.18,0-143.74,0-215.57C336.52,199.15,314.93,199.15,292.71,199.15z
	 M325.09,172.44c20.65,0.21,36.99-14.73,36.87-33.69c-0.13-19.48-14.9-33.7-35.47-34.16c-21.29-0.47-36.53,13.9-36.51,34.43
	C290,157.92,305.04,172.24,325.09,172.44z"/>
</svg>
