<?xml version="1.0" encoding="UTF-8"?><svg id="Capa_2" xmlns="http://www.w3.org/2000/svg" viewBox="0 0 11.92 16.02"><defs><style>.cls-1{fill:#1e2647;}</style></defs><g id="Capa_1-2"><path class="cls-1" d="m1.95,5.87c0-.55,0-1.12,0-1.69C1.99,1.75,3.68,0,5.96,0c2.29,0,3.98,1.77,4,4.19,0,.57,0,1.14,0,1.68,1.63.51,1.95.94,1.95,2.59,0,1.82,0,3.64,0,5.46,0,1.36-.71,2.08-2.06,2.09-2.6.01-5.2.01-7.8,0-1.36,0-2.05-.73-2.05-2.09,0-1.79,0-3.59,0-5.38,0-1.72.3-2.15,1.95-2.67Zm1.49.05h5.04c0-.74.03-1.42,0-2.09-.07-1.36-1.16-2.37-2.51-2.37-1.36,0-2.44,1.01-2.51,2.37-.04.67,0,1.35,0,2.09Zm2.23,6.04c-.06.04-.12.07-.19.11,0,.31-.05.64.02.93.04.18.31.46.42.43.2-.04.39-.26.5-.45.08-.14.02-.35.02-.54.02-.7-.11-1.38.58-1.96.51-.43.33-1.28-.18-1.73-.52-.46-1.34-.43-1.84.06-.47.47-.48,1.22-.1,1.78.29.42.51.9.76,1.36Z"/></g></svg>