<?xml version="1.0" encoding="utf-8"?>
<!-- Generator: Adobe Illustrator 27.0.0, SVG Export Plug-In . SVG Version: 6.00 Build 0)  -->
<svg version="1.1" id="Capa_1" xmlns="http://www.w3.org/2000/svg" xmlns:xlink="http://www.w3.org/1999/xlink" x="0px" y="0px"
	 viewBox="0 0 600 600" style="enable-background:new 0 0 600 600;" xml:space="preserve">
<style type="text/css">
	.st0{fill:#1E2648;}
</style>
<g>
	<g>
		<polygon class="st0" points="300,-62.83 300.08,-62.75 300.16,-62.83 		"/>
	</g>
</g>
<g>
	<path class="st0" d="M419.56,168.58c-19.99,0-38.53,0-58.14,0c-0.15-2.87-0.42-5.7-0.43-8.52c-0.06-15.37,0.04-66.74-0.12-82.1
		c-0.13-11.8-5.47-19.18-17.44-19.2c-63.91-0.1-127.82-0.06-191.73-0.07c-11.43,0-22.86,0-34.68,1.76
		c14.69,7.6,29.36,15.26,44.08,22.8c26.13,13.38,52.22,26.84,78.47,39.97c14.34,7.17,20.7,18.19,20.63,34.31
		c-0.3,76.3-0.13,167.6-0.13,243.9c0,4.03,0,8.06,0,12.73c2.43,0.29,4.47,0.74,6.5,0.75c25.62,0.02,51.24,0.05,76.86-0.08
		c12.37-0.06,17.47-5.42,17.47-17.85c0-34.51,0-46.02,0-80.53c0-2.66,0-5.32,0-8.55c19.64,0,38.63,0,58.66,0c0,5.46,0,10.51,0,15.57
		c0,46.37,0.02,69.75-0.01,116.12c-0.02,22.38-11.33,33.96-33.75,34.05c-38.02,0.15-76.05,0-114.07-0.02c-3.71,0-7.43,0-12.26,0
		c0,3.67,0,6.52,0,9.38c-0.01,33.16,0.03,66.32-0.04,99.49c-0.03,15.66-10.09,22.04-24.09,14.84
		C171.17,564.27,27.73,474.85,19.96,471.12C6.03,464.42-0.1,453.43,0,438.06c0.25-38.55,0.08-77.11,0.08-115.67
		c0-95.72-0.01-191.43,0-287.15c0-24.21,11.38-35.23,35.82-35.22C152.14,0.08,268.37,0.35,384.6-0.25
		c19.13-0.1,35.98,12.09,35.14,34.7c-1.07,28.81-0.21,95.69-0.18,124.54C419.56,161.9,419.56,164.8,419.56,168.58z"/>
	<path class="st0" d="M495,268.41c-5.29,0-8.19,0-11.09,0c-50.41-0.03-100.83-0.49-151.24,0.07c-26.39,0.29-38.56-23.56-31.58-43.47
		c4.47-12.76,15.42-20.45,30.67-20.49c36.93-0.1,73.87-0.01,110.8,0c16.91,0,33.82,0,50.73,0c0.49-0.69,0.97-1.38,1.46-2.07
		c-6.97-6.51-14.05-12.91-20.88-19.55c-7.73-7.51-15.82-14.75-22.73-22.97c-15.69-18.63-6.56-44.2,17.15-48.44
		c9.56-1.71,18.42,1.44,25.22,8.18c32.54,32.23,65.05,64.5,97.1,97.2c11.55,11.79,11.58,28.2-0.04,40.07
		c-31.86,32.54-64.07,64.73-96.61,96.58c-12.7,12.43-30.53,11.85-42.06,0.16c-11.15-11.32-11.25-29.78,0.59-42.39
		c11.43-12.17,23.6-23.64,35.43-35.44C489.8,273.99,491.58,272.02,495,268.41z"/>
</g>
</svg>
