<?xml version="1.0" encoding="utf-8"?>
<!-- Generator: Adobe Illustrator 24.1.0, SVG Export Plug-In . SVG Version: 6.00 Build 0)  -->
<svg version="1.1" id="Capa_1" xmlns="http://www.w3.org/2000/svg" xmlns:xlink="http://www.w3.org/1999/xlink" x="0px" y="0px"
	 viewBox="0 0 600 600" style="enable-background:new 0 0 600 600;" xml:space="preserve">
<style type="text/css">
	.st0{fill:#3F3F3F;}
	.st1{fill:#FFFFFF;}
	.st2{opacity:0.5593;}
</style>
<g>
	<g>
		<g>
			<g>
				<path class="st0" d="M595.32,438.68c-10.72-2.75-20.07-7.35-28.52-13.46c19.19-79.26-66.83-182.9-155.52-165.36
					c-67.04,13.26-133.16,14.29-200.88,1.89c-64.45-11.81-116.4,17.95-148.27,75.69c-14.51,26.29-19.95,52.59-16.54,77.4
					c-10.49,11.04-22.94,18.81-37.99,22.91c-2.26,0.62-4.45,1.48-7.58,2.54c2.64,4.43,4.42,8.77,7.36,12.09
					c12.47,14.09,24.5,28.72,38.14,41.61c33.83,31.97,72.81,53.72,120.35,57.86c19.45,1.69,38.65,5.5,56.68,13.6
					c3.68,1.65,7.28,3.47,12.46,5.94c-11.07-18.75-25.26-31.23-43.44-39.22c-8.83-3.88-17.87-7.31-26.59-11.42
					c-4.82-2.27-9.24-5.04-13.16-8.45c19.99,0.06,41.19-5.8,62.74-18.1c32.42-18.5,61.71-42.47,95-65.81
					c4.49,3.93,10.01,10.02,16.66,14.38c31.86,20.9,61.93,46.31,96.54,60.83c8.92,3.74,17.87,6.14,26.73,7.35
					c-5.29,5.04-11.46,8.7-18.21,11.68c-8.82,3.89-17.9,7.24-26.61,11.35c-16.63,7.85-29.35,20.02-39.5,37.09
					c2.15-0.77,2.94-0.94,3.62-1.32c14.78-8.17,30.81-12.38,47.31-15.35c20.9-3.77,42.53-5.68,62.42-12.53
					c46.88-16.16,82.03-48.8,112.38-86.95c3.44-4.33,5.92-9.43,9.12-14.62C597.73,439.5,596.55,438.99,595.32,438.68z"/>
			</g>
			<g>
				<path class="st0" d="M447.47,126.49c8.46-7.58,15.54-14.76,23.46-20.84c22.45-17.22,46.74-31.05,74.6-37.63
					c3.62-0.85,7.32-1.47,11.03-1.8c22.52-2.05,38.62,11.79,39.9,34.7c1.48,26.38-6.53,50.38-20.76,72.1
					c-7.28,11.11-16.49,20.99-25.31,31.01c-2.86,3.25-3.56,5.57-1.02,8.98c5.85,7.85,11.62,15.75,17.48,23.72
					c-14.49-5-27.16-13.51-37.58-24.76c-12.05-13.01-23.29-26.8-34.42-40.63C481.47,154.71,468.27,138.02,447.47,126.49z"/>
			</g>
			<g>
				<path class="st0" d="M151.63,126.93c-22.6,12.64-36.57,32.72-52.11,51.44c-12.41,14.96-25.61,29.41-39.67,42.8
					c-7.34,6.99-17.3,11.22-26.69,15.4c5.69-7.63,11.35-15.3,17.09-22.89c2.86-3.79,2.42-6.54-1.15-10.02
					C25.6,180.7,9.03,153.75,4.52,120.7c-1.25-9.17-1.07-18.93,0.6-28.02c3.06-16.59,16-26.87,32.85-26.37
					c9.07,0.27,18.41,1.92,27.03,4.76c30.65,10.07,57.59,26.57,80.67,49.21C147.53,122.1,149.16,124.16,151.63,126.93z"/>
			</g>
			<g>
				<path class="st0" d="M299.41,493.91c9.23,0.47,17.83,0.34,26.25,1.47c14.19,1.9,22.14,10.32,24.38,24.5
					c3.96,25.08-8.2,42.4-33.46,45.47c-11.61,1.41-23.81,1.58-35.31-0.33c-31.31-5.19-36.86-31.38-28.88-53.52
					c3.45-9.59,11.08-14.71,20.83-15.96C282.08,494.41,291.1,494.38,299.41,493.91z"/>
			</g>
			<g>
				<path class="st0" d="M299.96,206.9c-12.66-42.98-36.85-73.5-84.07-81.22c33.15-16.74,124.54-19.12,169.12-0.2
					C337.21,133.43,312.5,163.57,299.96,206.9z"/>
			</g>
		</g>
	</g>
	<g>
		<path class="st1" d="M426.38,359.51c-0.4,13.75-12,24.99-25.62,24.82c-13.93-0.18-25.49-12.15-25.11-26.01
			c0.39-13.9,12.55-25.38,26.3-24.8C415.62,334.09,426.78,345.95,426.38,359.51z"/>
	</g>
	<g>
		<path class="st1" d="M224.23,358.62c0.12,14.09-11.25,25.6-25.34,25.67c-13.56,0.06-25.15-11.44-25.28-25.1
			c-0.14-13.94,11.37-25.57,25.38-25.67C212.53,333.43,224.12,344.96,224.23,358.62z"/>
	</g>
	<g class="st2">
		<path class="st1" d="M426.38,359.51c-0.4,13.75-12,24.99-25.62,24.82c-13.93-0.18-25.49-12.15-25.11-26.01
			c0.39-13.9,12.55-25.38,26.3-24.8C415.62,334.09,426.78,345.95,426.38,359.51z"/>
	</g>
	<g class="st2">
		<path class="st1" d="M224.23,358.62c0.12,14.09-11.25,25.6-25.34,25.67c-13.56,0.06-25.15-11.44-25.28-25.1
			c-0.14-13.94,11.37-25.57,25.38-25.67C212.53,333.43,224.12,344.96,224.23,358.62z"/>
	</g>
</g>
</svg>
