<?xml version="1.0" encoding="UTF-8"?><svg id="Capa_2" xmlns="http://www.w3.org/2000/svg" viewBox="0 0 16.63 16.25"><defs><style>.cls-1{fill:#1e2647;}</style></defs><g id="Capa_1-2"><g><path class="cls-1" d="m11.64,3.63h-1.61c0-.08-.01-.16-.01-.24,0-.43,0-.85,0-1.28,0-.33-.15-.48-.48-.48-1.77,0-3.55,0-5.32,0-.32,0-.63,0-.96.05.41.21.81.42,1.22.63.72.37,1.45.74,2.18,1.11.4.2.57.5.57.95,0,2.12,0,4.23,0,6.35,0,.11,0,.22,0,.35.07,0,.12.02.18.02.71,0,1.42,0,2.13,0,.34,0,.48-.15.48-.5,0-.96,0-1.92,0-2.87,0-.07,0-.15,0-.24h1.63c0,.15,0,.29,0,.43,0,1.29,0,2.57,0,3.86,0,.62-.31.94-.94.94-1.05,0-2.11,0-3.16,0-.1,0-.21,0-.34,0,0,.1,0,.18,0,.26,0,.92,0,1.84,0,2.76,0,.43-.28.61-.67.41-1.78-.92-3.56-1.84-5.34-2.76-.21-.11-.42-.22-.64-.33C.17,12.89,0,12.59,0,12.16c0-1.07,0-2.14,0-3.21,0-2.66,0-5.31,0-7.97C0,.31.32,0,1,0,4.22,0,7.45.02,10.67,0c.53,0,1,.34.97.96-.03.8,0,1.6,0,2.4,0,.08,0,.16,0,.27Z"/><path class="cls-1" d="m13.73,6.4c-.15,0-.23,0-.31,0-1.4,0-2.8-.01-4.2,0-.73,0-1.07-.65-.88-1.21.12-.35.43-.57.85-.57,1.02,0,2.05,0,3.07,0,.47,0,.94,0,1.41,0,.01-.02.03-.04.04-.06-.19-.18-.39-.36-.58-.54-.21-.21-.44-.41-.63-.64-.44-.52-.18-1.23.48-1.34.27-.05.51.04.7.23.9.89,1.8,1.79,2.69,2.7.32.33.32.78,0,1.11-.88.9-1.78,1.8-2.68,2.68-.35.34-.85.33-1.17,0-.31-.31-.31-.83.02-1.18.32-.34.65-.66.98-.98.05-.05.1-.11.2-.21Z"/></g></g></svg>