<?xml version="1.0" encoding="utf-8"?>
<!-- Generator: Adobe Illustrator 24.1.0, SVG Export Plug-In . SVG Version: 6.00 Build 0)  -->
<svg version="1.1" id="Capa_1" xmlns="http://www.w3.org/2000/svg" xmlns:xlink="http://www.w3.org/1999/xlink" x="0px" y="0px"
	 viewBox="0 0 600 600" style="enable-background:new 0 0 600 600;" xml:space="preserve">
<style type="text/css">
	.st0{fill:#2AD1CC;}
	.st1{fill:#3F3F3F;}
	.st2{fill:#FFFFFF;}
	.st3{opacity:0.5593;}
</style>
<circle class="st0" cx="300.21" cy="300" r="299.79"/>
<g>
	<g>
		<g>
			<g>
				<path class="st1" d="M519.44,407.77c-7.96-2.04-14.9-5.46-21.17-9.99c14.25-58.84-49.61-135.78-115.45-122.76
					c-49.77,9.84-98.85,10.61-149.13,1.4c-47.85-8.76-86.41,13.33-110.07,56.19c-10.77,19.51-14.81,39.04-12.28,57.46
					c-7.79,8.2-17.03,13.96-28.2,17.01c-1.68,0.46-3.3,1.1-5.63,1.88c1.96,3.29,3.28,6.51,5.47,8.98
					c9.26,10.46,18.19,21.32,28.32,30.89c25.12,23.73,54.05,39.88,89.34,42.95c14.44,1.26,28.69,4.08,42.08,10.1
					c2.73,1.23,5.4,2.57,9.25,4.41c-8.22-13.92-18.75-23.18-32.25-29.11c-6.56-2.88-13.26-5.43-19.74-8.48
					c-3.58-1.69-6.86-3.74-9.77-6.28c14.84,0.05,30.58-4.31,46.57-13.43c24.06-13.73,45.81-31.53,70.53-48.85
					c3.33,2.92,7.43,7.44,12.37,10.68c23.65,15.52,45.98,34.38,71.67,45.16c6.62,2.78,13.27,4.56,19.84,5.46
					c-3.92,3.74-8.51,6.46-13.52,8.67c-6.55,2.89-13.29,5.37-19.76,8.42c-12.34,5.83-21.79,14.86-29.32,27.53
					c1.59-0.57,2.18-0.7,2.69-0.98c10.98-6.06,22.87-9.19,35.12-11.4c15.52-2.8,31.57-4.21,46.33-9.3
					c34.8-12,60.89-36.22,83.43-64.55c2.56-3.21,4.39-7,6.77-10.85C521.23,408.38,520.35,408,519.44,407.77z"/>
			</g>
			<g>
				<path class="st1" d="M409.68,176.01c6.28-5.62,11.54-10.96,17.42-15.47c16.67-12.78,34.7-23.05,55.38-27.93
					c2.69-0.63,5.44-1.09,8.18-1.34c16.72-1.52,28.67,8.76,29.62,25.76c1.1,19.58-4.85,37.4-15.41,53.52
					c-5.4,8.24-12.24,15.58-18.79,23.02c-2.12,2.41-2.64,4.14-0.76,6.67c4.34,5.83,8.62,11.69,12.97,17.61
					c-10.76-3.71-20.16-10.03-27.9-18.38c-8.95-9.66-17.29-19.9-25.55-30.16C434.92,196.96,425.13,184.57,409.68,176.01z"/>
			</g>
			<g>
				<path class="st1" d="M190.06,176.34c-16.77,9.39-27.15,24.29-38.68,38.18c-9.22,11.1-19.01,21.83-29.45,31.78
					c-5.45,5.19-12.84,8.33-19.82,11.43c4.23-5.67,8.42-11.35,12.69-16.99c2.13-2.81,1.79-4.85-0.85-7.44
					c-17.44-17.05-29.75-37.06-33.1-61.59c-0.93-6.81-0.8-14.05,0.45-20.8c2.27-12.31,11.88-19.95,24.39-19.58
					c6.73,0.2,13.66,1.43,20.07,3.53c22.75,7.48,42.75,19.73,59.88,36.53C187.02,172.76,188.23,174.28,190.06,176.34z"/>
			</g>
			<g>
				<path class="st1" d="M299.77,448.77c6.85,0.35,13.23,0.25,19.49,1.09c10.54,1.41,16.43,7.66,18.1,18.19
					c2.94,18.62-6.09,31.47-24.84,33.76c-8.62,1.05-17.68,1.17-26.21-0.24c-23.24-3.85-27.36-23.29-21.44-39.73
					c2.56-7.12,8.23-10.92,15.46-11.84C286.91,449.14,293.6,449.12,299.77,448.77z"/>
			</g>
			<g>
				<path class="st1" d="M300.18,235.71c-9.4-31.91-27.36-54.56-62.41-60.3c24.61-12.43,92.45-14.2,125.55-0.15
					C327.83,181.17,309.49,203.54,300.18,235.71z"/>
			</g>
		</g>
	</g>
	<g>
		<path class="st2" d="M394.03,348.99c-0.29,10.21-8.91,18.55-19.02,18.42c-10.34-0.13-18.92-9.02-18.64-19.31
			c0.29-10.32,9.32-18.84,19.52-18.41C386.04,330.13,394.32,338.93,394.03,348.99z"/>
	</g>
	<g>
		<path class="st2" d="M243.96,348.34c0.09,10.46-8.35,19-18.81,19.05c-10.07,0.05-18.67-8.49-18.77-18.64
			c-0.1-10.35,8.44-18.98,18.84-19.05C235.27,329.63,243.88,338.19,243.96,348.34z"/>
	</g>
	<g class="st3">
		<path class="st2" d="M394.03,348.99c-0.29,10.21-8.91,18.55-19.02,18.42c-10.34-0.13-18.92-9.02-18.64-19.31
			c0.29-10.32,9.32-18.84,19.52-18.41C386.04,330.13,394.32,338.93,394.03,348.99z"/>
	</g>
	<g class="st3">
		<path class="st2" d="M243.96,348.34c0.09,10.46-8.35,19-18.81,19.05c-10.07,0.05-18.67-8.49-18.77-18.64
			c-0.1-10.35,8.44-18.98,18.84-19.05C235.27,329.63,243.88,338.19,243.96,348.34z"/>
	</g>
</g>
</svg>
