<?xml version="1.0" encoding="utf-8"?>
<!-- Generator: Adobe Illustrator 27.0.0, SVG Export Plug-In . SVG Version: 6.00 Build 0)  -->
<svg version="1.1" id="Capa_1" xmlns="http://www.w3.org/2000/svg" xmlns:xlink="http://www.w3.org/1999/xlink" x="0px" y="0px"
	 viewBox="0 0 600 600" style="enable-background:new 0 0 600 600;" xml:space="preserve">
<style type="text/css">
	.st0{fill:#FFCF54;}
	.st1{fill:#1E2648;}
	.st2{fill:#FFFFFF;}
</style>
<g>
	<g>
		<circle class="st0" cx="300.87" cy="299.38" r="299.57"/>
	</g>
</g>
<g>
	<g>
		<polygon class="st1" points="300,-46.83 300.08,-46.75 300.16,-46.83 		"/>
	</g>
</g>
<g>
	<path class="st2" d="M300.78,302.3c25.26,30.4,69.37,33.82,98.33,0.23c16.03,18.83,36.31,26.92,61.26,23.03
		c0,39.77,0,117.04,0,156.76c-106.12,0-212.13,0-318.71,0c0-39.21,0-116.63,0-154.56c11.37-1.74,23.2-1.73,33.55-5.64
		c10.23-3.86,18.96-11.68,28.99-18.17c11.46,13.99,27.76,22.54,47.51,22.6C271.53,326.63,287.84,318.06,300.78,302.3z"/>
	<path class="st2" d="M288.56,116.55c0,38.6,0,85.02,0,123.47c-23.42,0-46.79,0-70.96,0c1.99-11.59,3.92-22.88,5.9-34.18
		c4.38-25.06,8.92-58.64,13.08-83.74c0.73-4.38,2.28-5.72,6.65-5.65C258.21,116.71,273.2,116.55,288.56,116.55z"/>
	<path class="st2" d="M364.24,116.98c6.63,37.98,13.29,84.61,20.03,123.19c-23.88,0-47.15,0-70.93,0c0-38.08,0-84.68,0-123.19
		C330.13,116.98,346.82,116.98,364.24,116.98z"/>
	<path class="st2" d="M478.59,240.56c-21.92,0-43.72,0.09-65.52-0.18c-1.54-0.02-4.13-2.38-4.43-3.98
		c-5.04-27.61-9.8-55.27-14.6-82.92c-1.6-9.2-3.13-26.93-4.84-36.93c16.35,0,32.01-0.09,47.67,0.16c1.32,0.02,3.3,2.01,3.82,3.48
		c12.86,36.73,25.56,82.05,38.28,118.82C479.03,239.18,478.88,239.43,478.59,240.56z"/>
	<path class="st2" d="M212.6,116.53c-3.02,17.5-5.9,42.73-8.81,59.43c-3.43,19.71-6.9,39.42-10.32,59.14
		c-0.49,2.86-0.62,5.54-4.79,5.52c-21.79-0.13-43.59-0.06-66.09-0.06c0.64-2.64,0.96-4.71,1.65-6.66
		c12.12-34.68,24.22-77.9,36.54-112.5c0.7-1.95,3.15-4.61,4.84-4.65C180.85,116.39,196.1,116.53,212.6,116.53z"/>
	<path class="st2" d="M117.62,265.46c24.35,0,48.25,0,72.13,0c2.25,17.95-14.67,35.6-34.64,36.42
		C134.57,302.72,116.8,285.8,117.62,265.46z"/>
	<path class="st2" d="M484.06,265.75c1.43,17.92-14.5,34.84-33.85,36.13c-20.5,1.37-37.87-14.57-38.79-36.13
		C435.65,265.75,459.86,265.75,484.06,265.75z"/>
	<path class="st2" d="M313.33,265.51c24.17,0,48.32,0,72.45,0c1.54,18.52-14.4,35.36-34.18,36.39
		C331.06,302.96,313.97,286.86,313.33,265.51z"/>
	<path class="st2" d="M288.68,265.52c-2.4,23.1-18.89,37.92-39.68,36.34c-19.01-1.45-34.04-17.77-33.12-36.34
		C240,265.52,264.15,265.52,288.68,265.52z"/>
</g>
</svg>
