<?xml version="1.0" encoding="UTF-8"?><svg id="Capa_2" xmlns="http://www.w3.org/2000/svg" viewBox="0 0 13.78 16.98"><defs><style>.cls-1{fill:#1e2647;}</style></defs><g id="Capa_1-2"><g><path class="cls-1" d="m13.78,14H0c.01-.08,0-.12.03-.16,1.41-2.01,1.64-4.31,1.83-6.62.07-.77.02-1.55.2-2.29C2.79,2,6.36.49,9.19,1.86c.25.12,2.2.93,2.77,4.46-.02,1.77.22,3.51.74,5.21.26.84.71,1.63,1.08,2.47Z"/><path class="cls-1" d="m9.48,14.56c.12,1.26-1.1,2.42-2.53,2.43-1.45,0-2.68-1.14-2.57-2.43h5.1Z"/><path class="cls-1" d="m8.17.97h-2.45C5.76.45,6.23.04,6.85,0c.68-.04,1.19.35,1.32.97Z"/></g></g></svg>