<?xml version="1.0" encoding="UTF-8"?><svg id="Capa_2" xmlns="http://www.w3.org/2000/svg" viewBox="0 0 20.42 18.11"><defs><style>.cls-1{fill:#1e2647;}.cls-2{fill:#c71517;stroke:#fff;stroke-miterlimit:10;}</style></defs><g id="Capa_1-2"><g><g><path class="cls-1" d="m13.78,15.13H0c.01-.08,0-.12.03-.16,1.41-2.01,1.64-4.31,1.83-6.62.07-.77.02-1.55.2-2.29.72-2.93,4.3-4.44,7.13-3.07.25.12.36.23.29.53-.35,1.49.53,2.94,2.08,3.39.34.1.41.24.41.55-.02,1.77.22,3.51.74,5.21.26.84.71,1.63,1.08,2.47Z"/><path class="cls-1" d="m9.48,15.68c.12,1.26-1.1,2.42-2.53,2.43-1.45,0-2.68-1.14-2.57-2.43h5.1Z"/><path class="cls-1" d="m8.17,2.09h-2.45c.04-.52.5-.93,1.13-.97.68-.04,1.19.35,1.32.97Z"/></g><circle class="cls-2" cx="13.87" cy="6.55" r="6.05"/></g></g></svg>