<?xml version="1.0" encoding="UTF-8"?><svg id="Capa_2" xmlns="http://www.w3.org/2000/svg" viewBox="0 0 17.19 17.18"><defs><style>.cls-1{fill:#1e2647;}</style></defs><g id="Capa_1-2"><g><path class="cls-1" d="m4.61,1.07c.29.07.61.15.93.23.34.09.68.19,1.03.27.08.02.21-.02.27-.08.44-.42.86-.84,1.29-1.27.31-.3.6-.31.91,0,.43.42.86.85,1.29,1.27.09.09.17.13.3.09.6-.17,1.21-.32,1.81-.48.33-.09.6.07.7.4.17.59.33,1.17.48,1.76.04.16.11.24.28.29.59.15,1.18.32,1.76.49.35.1.49.37.4.71-.15.6-.31,1.2-.47,1.79-.04.13-.01.21.08.3.43.42.85.85,1.27,1.29.3.31.3.6,0,.91-.42.43-.85.86-1.27,1.29-.09.09-.12.17-.09.3.17.59.32,1.19.47,1.79.09.36-.05.62-.41.73-.58.17-1.16.33-1.74.48-.16.04-.24.11-.28.28-.15.58-.31,1.15-.47,1.72-.11.39-.37.54-.75.44-.59-.15-1.18-.3-1.77-.47-.13-.04-.21-.01-.3.08-.43.43-.86.85-1.29,1.27-.31.3-.61.3-.91,0-.43-.42-.85-.85-1.29-1.27-.06-.06-.19-.1-.27-.08-.62.15-1.23.31-1.84.47-.32.08-.6-.06-.69-.38-.17-.59-.33-1.17-.48-1.76-.05-.18-.13-.27-.31-.31-.58-.14-1.15-.31-1.72-.47-.37-.1-.51-.37-.41-.75.15-.59.3-1.18.47-1.77.04-.13.01-.21-.08-.3-.43-.42-.85-.85-1.27-1.28-.3-.31-.3-.6,0-.91.42-.43.85-.86,1.27-1.29.09-.09.12-.17.08-.3-.16-.59-.31-1.18-.47-1.77-.1-.38.04-.64.43-.75.58-.16,1.16-.33,1.74-.48.15-.04.22-.1.25-.25.15-.6.32-1.19.49-1.79.08-.27.29-.43.57-.44Zm7.22,4.93s-.03-.02-.04-.03c0-.03,0-.06-.01-.09-.05-.22-.17-.38-.39-.45-.22-.07-.41,0-.57.16-.62.62-1.24,1.23-1.85,1.85-1.12,1.12-2.23,2.23-3.34,3.35-.25.26-.26.57-.04.81.23.24.56.24.82-.02.17-.16.33-.33.49-.49,1.55-1.55,3.1-3.09,4.64-4.64.12-.12.2-.3.3-.45Zm-3.61.35c.01-1.01-.83-1.87-1.85-1.88-1.03-.01-1.89.84-1.9,1.88,0,.99.85,1.85,1.84,1.86,1.05,0,1.89-.81,1.9-1.86Zm2.64,2.62c-1.03,0-1.88.82-1.89,1.86-.01,1.02.84,1.88,1.87,1.89,1.01,0,1.89-.86,1.88-1.88,0-1.02-.85-1.86-1.86-1.87Z"/><path class="cls-1" d="m5.6,6.34c0-.41.32-.74.73-.74.43,0,.75.31.77.73.01.4-.34.76-.74.76-.42,0-.74-.33-.75-.75Z"/><path class="cls-1" d="m10.84,11.58c-.42,0-.75-.33-.75-.75,0-.4.33-.74.74-.74.43,0,.76.33.76.76,0,.41-.34.73-.74.73Z"/></g></g></svg>