<?xml version="1.0" encoding="utf-8"?>
<!-- Generator: Adobe Illustrator 27.0.0, SVG Export Plug-In . SVG Version: 6.00 Build 0)  -->
<svg version="1.1" id="Capa_1" xmlns="http://www.w3.org/2000/svg" xmlns:xlink="http://www.w3.org/1999/xlink" x="0px" y="0px"
	 viewBox="0 0 600 600" style="enable-background:new 0 0 600 600;" xml:space="preserve">
<style type="text/css">
	.st0{fill:#1E2648;}
</style>
<g>
	<g>
		<polygon class="st0" points="300,-46.83 300.08,-46.75 300.16,-46.83 		"/>
	</g>
</g>
<g>
	<path class="st0" d="M568.62,317.32c-10.16-40.55-59.01-54.47-88.8-24.63c-31.56,31.62-62.23,64.17-94.22,97.5
		c-0.56,8.34-5.87,49.38-55.27,49.38H215.21v-12h115.12c17.93,0,30.61-6.37,37.71-18.95c4.04-7.16,5.18-14.49,5.5-17.92
		c-12.87-22.91-33.27-30.58-59.46-29.89c-55.77,1.47-111.67,4.09-167.33,1.77c-49.19-2.05-81.73,22.33-110.29,56.95
		c-1.05,1.27-1.65,3.85-1.79,6.24C8.52,545.19,90.93,585.67,117.51,595.45c0.7,1.58,1.56,3.08,2.55,4.07
		c1.41,1.42,7.07-0.62,10.34-2.14c2.13-0.99,3.61-3.7,5.01-5.88c12.58-19.45,29.93-26.54,53.26-24.95
		c34.82,2.37,69.82,2.71,104.75,2.84c33.44,0.13,64.86-9.29,89-32.54c58.99-56.8,116.65-114.98,174.39-173.06
		C569.34,351.2,573,334.8,568.62,317.32z"/>
	<path class="st0" d="M155.4,328.92c14.95,0,209.31,0,209.31,0s102.23-76.31,103.55-90.52c0.45-0.69,0.92-1.37,1.08-2.11
		c3.17-14.17,6.18-28.69,6.49-43.13C478.09,89.66,391.45,1.61,286.5,0.02C177.21-1.63,89.24,83.7,87.98,206.75
		c0.14,30.06,13.44,69.79,42.31,103.69C130.28,310.44,140.45,328.92,155.4,328.92z"/>
</g>
</svg>
