<?xml version="1.0" encoding="UTF-8"?><svg id="Capa_2" xmlns="http://www.w3.org/2000/svg" viewBox="0 0 24.41 22.92"><defs><style>.cls-1{fill:#0b204c;}</style></defs><g id="Capa_1-2"><path class="cls-1" d="m23.79,19.47l-6.1-5.84c.66-1.28,1.04-2.73,1.04-4.27C18.73,4.19,14.54,0,9.36,0S0,4.19,0,9.36s4.19,9.36,9.36,9.36c2.18,0,4.18-.75,5.78-2l5.89,5.64c.39.37.89.56,1.38.56.53,0,1.05-.21,1.45-.62.76-.8.74-2.06-.06-2.83Zm-10.97-4.96c-.99.67-2.18,1.06-3.46,1.06-3.43,0-6.2-2.78-6.2-6.2s2.78-6.2,6.2-6.2,6.2,2.78,6.2,6.2c0,.68-.11,1.32-.31,1.93-.43,1.32-1.3,2.45-2.43,3.21Z"/></g></svg>