<?xml version="1.0" encoding="utf-8"?>
<!-- Generator: Adobe Illustrator 27.0.0, SVG Export Plug-In . SVG Version: 6.00 Build 0)  -->
<svg version="1.1" id="Capa_1" xmlns="http://www.w3.org/2000/svg" xmlns:xlink="http://www.w3.org/1999/xlink" x="0px" y="0px"
	 viewBox="0 0 600 600" style="enable-background:new 0 0 600 600;" xml:space="preserve">
<style type="text/css">
	.st0{fill:#1E2648;}
	.st1{fill:#1E2647;}
</style>
<g>
	<g>
		<polygon class="st0" points="300.11,-46.83 300.19,-46.75 300.27,-46.83 		"/>
	</g>
</g>
<path class="st1" d="M523.28,316.81c-0.01-61.67-12.04-78.05-72.98-96.97c0-20.48,0.19-41.78-0.03-63.07
	C449.3,66.2,386,0.06,300.35,0c-85.53-0.06-148.64,65.65-150.16,156.61c-0.36,21.28-0.05,42.58-0.05,63.09
	c-61.73,19.47-73.03,35.31-73.04,99.85c0,67.21-0.17,134.42,0.1,201.63c0.2,51.22,26.11,78.14,76.86,78.42
	c97.38,0.53,194.77,0.52,292.15,0.02c50.59-0.26,76.78-27.32,76.99-78.26C523.47,453.18,523.29,385,523.28,316.81z M324.32,403.02
	v74.52c0,3.09-1.46,6.01-3.94,7.86l-14.32,10.68c-3.48,2.6-8.25,2.6-11.73,0l-14.32-10.68c-2.48-1.85-3.94-4.76-3.94-7.86v-74.52
	c-11.71-8.08-19.18-21.88-18.36-37.37c1.16-21.77,19-39.34,40.78-40.18c24.27-0.94,44.24,18.45,44.24,42.51
	C342.74,382.52,335.44,395.35,324.32,403.02z M394.49,221.56c-62.5,0-124.04,0-188.6,0c0-27.68-1.09-53.03,0.23-78.25
	c2.68-50.95,43.37-88.66,94.12-88.69c50.72-0.03,91.46,37.81,94.02,88.72C395.54,168.57,394.49,193.91,394.49,221.56z"/>
</svg>
