<?xml version="1.0" encoding="UTF-8"?><svg id="Capa_2" xmlns="http://www.w3.org/2000/svg" viewBox="0 0 28.46 25.1"><defs><style>.cls-1{fill:#0b204c;}</style></defs><g id="Capa_1-2"><g><path class="cls-1" d="m28.09,6.5c-.36-.49-.91-.77-1.52-.77H6.75c-.38,0-.71-.27-.78-.65l-.3-1.64c-.04-.22-.17-.41-.35-.53L.96.1C.68-.09.29,0,.1.28-.09.57,0,.96.29,1.15l3.91,2.53c.18.12.31.31.35.53l2.28,12.6c.1.55.57.95,1.13.96l1.27.02h14.08c1.27,0,2.38-.83,2.76-2.04l2.33-7.58c.18-.58.07-1.19-.29-1.68Z"/><path class="cls-1" d="m11.92,18.83c-1.73,0-3.14,1.41-3.14,3.14s1.41,3.14,3.14,3.14,3.14-1.41,3.14-3.14-1.41-3.14-3.14-3.14Z"/><path class="cls-1" d="m20.86,18.83c-1.73,0-3.14,1.41-3.14,3.14s1.41,3.14,3.14,3.14,3.14-1.41,3.14-3.14-1.41-3.14-3.14-3.14Z"/></g></g></svg>