<?xml version="1.0" encoding="utf-8"?>
<!-- Generator: Adobe Illustrator 27.0.0, SVG Export Plug-In . SVG Version: 6.00 Build 0)  -->
<svg version="1.1" id="Capa_1" xmlns="http://www.w3.org/2000/svg" xmlns:xlink="http://www.w3.org/1999/xlink" x="0px" y="0px"
	 viewBox="0 0 600 600" style="enable-background:new 0 0 600 600;" xml:space="preserve">
<style type="text/css">
	.st0{fill:#1E2648;}
</style>
<g>
	<g>
		<polygon class="st0" points="300,-46.83 300.08,-46.75 300.16,-46.83 		"/>
	</g>
</g>
<g>
	<path class="st0" d="M599.56,236.79c0.17,15.49-7.81,26.73-18.58,36.8c-26.01,24.33-51.74,48.95-76.98,74.09
		c-8.08,8.04-16.37,15.87-24.77,23.58c-3.78,3.47-4.84,7.03-3.9,12.23c8.91,49.23,17.73,98.47,26.16,147.78
		c5.48,32.05-27.94,58.93-58.28,46.57c-13.84-5.63-26.82-13.4-40.08-20.41c-23.18-12.25-46.28-24.65-69.4-37.01
		c-9-4.81-18.11-9.44-26.92-14.59c-4.73-2.76-8.6-2.54-13.38,0.02c-43.75,23.44-87.51,46.86-131.5,69.85
		c-21.71,11.35-45.81,3.88-57.96-17.36c-4.78-8.36-6.75-17.5-5.04-27.2c7.85-44.54,15.69-89.08,23.53-133.63
		c0.45-2.56,0.28-5.36,1.27-7.67c4.44-10.38-0.51-16.91-7.81-23.82C81.63,333.57,47.6,300.84,13.8,267.85
		c-12.89-12.58-16.4-28.38-10.75-45.36c5.68-17.08,18.24-26.92,36.07-29.44c49.33-6.99,98.67-13.82,148.03-20.62
		c3.86-0.53,6.11-2.57,7.71-5.82c9.62-19.58,19.29-39.13,28.87-58.73c12.83-26.25,25.19-52.74,38.56-78.71
		c7.82-15.19,21.68-22.61,38.52-22.15c18.27,0.49,31.61,9.66,39.72,26.44c21.08,43.6,42.44,87.06,63.52,130.66
		c2.61,5.41,6.03,7.88,12.22,8.71c46.4,6.27,92.7,13.25,139.12,19.41c13.69,1.82,25.51,5.82,34.56,16.81
		C596.69,217.22,599.42,226.48,599.56,236.79z"/>
</g>
</svg>
