<?xml version="1.0" encoding="UTF-8"?><svg id="Capa_2" xmlns="http://www.w3.org/2000/svg" viewBox="0 0 15.87 14.96"><defs><style>.cls-1{fill:#1e2647;}</style></defs><g id="Capa_1-2"><g><path class="cls-1" d="m0,7.46c0-1.46,0-2.92,0-4.38C.01,1.34,1.32.02,3.07,0c2.93-.01,5.86-.01,8.79,0,.39,0,.78.11,1.15.23.31.1.33.35.13.61-.34.45-.75.55-1.34.54-2.24-.07-4.47-.03-6.71-.03-.68,0-1.36,0-2.04,0-.98.02-1.68.72-1.69,1.7,0,2.93,0,5.86,0,8.79,0,1,.71,1.72,1.71,1.72,2.92,0,5.83,0,8.75,0,.99,0,1.68-.7,1.7-1.69.02-.82,0-1.64.01-2.46,0-.35.59-1.15.92-1.23.26-.06.43.06.43.33,0,1.29.06,2.58-.05,3.86-.13,1.45-1.48,2.55-2.98,2.55-2.25.01-4.5,0-6.75,0-.69,0-1.39,0-2.08,0C1.33,14.93.02,13.61,0,11.92c0-1.49,0-2.97,0-4.46Z"/><path class="cls-1" d="m15.5,2.53c-.5-.5-1.3-.5-1.79,0l-6.28,6.28-2.69-2.69c-.5-.5-1.3-.5-1.79,0s-.5,1.3,0,1.79l3.59,3.59c.5.5,1.3.5,1.79,0l7.18-7.18c.5-.5.5-1.3,0-1.79Z"/></g></g></svg>