<?xml version="1.0" encoding="utf-8"?>
<!-- Generator: Adobe Illustrator 27.0.0, SVG Export Plug-In . SVG Version: 6.00 Build 0)  -->
<svg version="1.1" id="Capa_1" xmlns="http://www.w3.org/2000/svg" xmlns:xlink="http://www.w3.org/1999/xlink" x="0px" y="0px"
	 viewBox="0 0 600 600" style="enable-background:new 0 0 600 600;" xml:space="preserve">
<style type="text/css">
	.st0{fill:#1E2648;}
</style>
<g>
	<g>
		<polygon class="st0" points="300,-62.83 300.08,-62.75 300.16,-62.83 		"/>
	</g>
</g>
<g>
	<path class="st0" d="M0.49,298.05c0-55.17-0.2-126.34,0.05-181.51C0.83,50.79,50.42,0.61,116.45,0.32
		c110.88-0.48,221.76-0.45,332.63,0.27c14.6,0.09,29.6,4.2,43.62,8.84c11.81,3.9,12.56,13.15,4.98,23.04
		c-13.01,16.96-28.47,20.93-50.82,20.26c-84.56-2.54-169.23-1.08-253.86-1.09c-25.71,0-51.43-0.33-77.13,0.2
		c-37.12,0.76-63.71,27.22-63.83,64.48c-0.35,110.88-0.34,255.76-0.02,366.63c0.11,37.98,26.93,65.08,64.77,65.21
		c110.34,0.38,220.69,0.37,331.03,0c37.4-0.12,63.49-26.37,64.27-63.89c0.65-31.05,0.24-80.13,0.39-111.2
		c0.06-13.15,22.24-43.32,34.8-46.41c9.68-2.38,16.21,2.4,16.2,12.34c-0.04,48.73,2.42,115.71-1.77,164.11
		c-4.74,54.73-56.02,96.3-112.88,96.6c-85.16,0.45-170.33,0.18-255.49,0.19c-26.25,0-52.5,0.3-78.74-0.16
		C50.63,598.64,0.96,548.67,0.56,484.78C0.21,428.54,0.49,354.29,0.49,298.05z"/>
	<path class="st0" d="M586.73,111.68c-18.75-18.75-49.14-18.75-67.89,0L281.21,349.31L179.37,247.47
		c-18.75-18.75-49.14-18.75-67.89,0c-18.75,18.75-18.75,49.14,0,67.89l135.79,153.79c18.75,18.75,49.14,18.75,67.89,0l271.57-289.57
		C605.48,160.82,605.48,130.43,586.73,111.68z"/>
</g>
</svg>
