<?xml version="1.0" encoding="UTF-8"?><svg id="Capa_2" xmlns="http://www.w3.org/2000/svg" viewBox="0 0 93.91 93.89"><defs><style>.cls-1{fill:#fff;}.cls-2{fill:#2ad1cc;}</style></defs><g id="Capa_1-2"><g><path class="cls-2" d="m46.93,93.89C21.19,93.88.75,73.38.02,48.58-.79,20.89,21.03.63,45.49.02c27.66-.69,47.76,21.16,48.4,45.49.72,27.49-21.45,48.51-46.96,48.38Zm-.3-36.92c-.89.05-2.12.06-3.34.21-5.18.66-9.98,2.37-14.3,5.34-5.04,3.47-8.79,8.01-11.29,13.59-.21.48-.2.82.23,1.16.5.4.96.85,1.45,1.27,7.41,6.44,16.05,9.82,25.83,10.36,3.47.19,6.91-.14,10.3-.86,7.78-1.65,14.54-5.26,20.36-10.67.47-.44.54-.8.28-1.36-1.9-4.16-4.5-7.83-7.92-10.87-6.05-5.37-13.17-8.04-21.59-8.17Zm.31-38.57c-9.22,0-16.84,7.57-16.79,16.79.05,9.38,7.42,16.73,16.68,16.82,9.35.09,16.94-7.53,16.94-16.83,0-9.21-7.59-16.78-16.82-16.78Z"/><path class="cls-1" d="m46.63,56.97c8.42.13,15.54,2.8,21.59,8.17,3.42,3.04,6.02,6.7,7.92,10.87.26.57.19.92-.28,1.36-5.82,5.42-12.58,9.03-20.36,10.67-3.39.72-6.84,1.05-10.3.86-9.77-.54-18.42-3.91-25.83-10.36-.48-.42-.95-.87-1.45-1.27-.43-.34-.44-.68-.23-1.16,2.5-5.58,6.26-10.12,11.29-13.59,4.32-2.97,9.12-4.69,14.3-5.34,1.21-.15,2.45-.16,3.34-.21Z"/><path class="cls-1" d="m46.94,18.4c9.23,0,16.82,7.57,16.82,16.78,0,9.3-7.59,16.92-16.94,16.83-9.26-.09-16.63-7.44-16.68-16.82-.05-9.22,7.57-16.79,16.79-16.79Z"/></g></g></svg>