<?xml version="1.0" encoding="UTF-8"?><svg id="Capa_2" xmlns="http://www.w3.org/2000/svg" viewBox="0 0 18.29 21.97"><defs><style>.cls-1{fill:#0b204c;}</style></defs><g id="Capa_1-2"><g><path class="cls-1" d="m9.05,12.01c2.62.04,4.84.87,6.73,2.54,1.07.95,1.88,2.09,2.47,3.38.08.18.06.29-.09.42-1.81,1.69-3.92,2.81-6.34,3.32-1.06.22-2.13.33-3.21.27-3.04-.17-5.74-1.22-8.04-3.23-.15-.13-.29-.27-.45-.4-.13-.11-.14-.21-.07-.36.78-1.74,1.95-3.15,3.52-4.23,1.34-.93,2.84-1.46,4.45-1.66.38-.05.76-.05,1.04-.07Z"/><path class="cls-1" d="m9.15,0c2.87,0,5.24,2.36,5.24,5.23,0,2.9-2.36,5.27-5.28,5.24-2.88-.03-5.18-2.32-5.19-5.24C3.9,2.36,6.28,0,9.15,0Z"/></g></g></svg>