<?xml version="1.0" encoding="UTF-8"?><svg id="Capa_2" xmlns="http://www.w3.org/2000/svg" viewBox="0 0 23.27 23.27"><defs><style>.cls-1{fill:#0b204c;}</style></defs><g id="Capa_1-2"><path class="cls-1" d="m21.31,23.27H1.96c-.04-.12-.15-.15-.25-.19-.72-.3-1.23-.8-1.52-1.52-.04-.1-.07-.21-.19-.25V3.85c.29-.3.49-.68.9-.86.43-.18.87-.3,1.32-.37C7.09,1.81,11.95.99,16.81.18c.17-.03.37,0,.49-.18h1.75c.07.14.22.14.34.18.83.28,1.17.74,1.19,1.62,0,.44-.01.87,0,1.31.02.34-.12.48-.45.49-1.02.03-2.03.08-3.05.13-5.23.24-10.46.48-15.68.72-.17,0-.41-.06-.46.18-.05.21.11.36.27.48.14.1.3.16.47.19.33.07.67.07,1.01.07,4.05,0,8.09,0,12.14,0,1.9,0,3.8,0,5.71,0,1.2,0,2.04.58,2.54,1.68.05.11.07.24.2.29v13.96c-.12.04-.15.15-.19.25-.3.72-.8,1.23-1.52,1.52-.1.04-.21.07-.25.19Zm.15-8.96c0-.99-.79-1.78-1.78-1.78-.97,0-1.78.82-1.78,1.79,0,.98.81,1.78,1.79,1.77,1,0,1.77-.78,1.77-1.78Z"/></g></svg>